<svg xmlns="http://www.w3.org/2000/svg" xmlns:xlink="http://www.w3.org/1999/xlink" fill="none" version="1.1" width="66" height="58.666664123535156" viewBox="0 0 66 58.666664123535156"><defs><clipPath id="master_svg0_1_2684/0_1425"><rect x="0" y="0" width="66" height="58.666664123535156" rx="0"/></clipPath></defs><g clip-path="url(#master_svg0_1_2684/0_1425)"><g><path d="M31.058999999999997,16.5344C31.058999999999997,16.5344,37.2774,18.1729,37.2774,18.1729C37.4886,18.2223,37.6776,18.3401,37.8149,18.5079C37.9523,18.6757,38.0304,18.8843,38.0371,19.101C38.0371,19.6281,37.5684,20.0635,36.9921,20.0635C36.9921,20.0635,32.9129,20.0635,32.9129,20.0635C32.4733,20.0623,32.0381,19.9767,31.630699999999997,19.8115C31.030299999999997,19.5594,30.338199999999997,19.6167,29.877599999999997,20.0406C29.877599999999997,20.0406,27.700499999999998,22.0458,27.700499999999998,22.0458C27.599799999999995,22.134,27.512899999999995,22.2367,27.442699999999995,22.3506C27.352799999999995,22.4981,27.292999999999996,22.6618,27.266699999999997,22.8325C27.240399999999998,23.0031,27.248199999999997,23.1773,27.289499999999997,23.345C27.330799999999996,23.5126,27.404899999999998,23.6704,27.507499999999997,23.8093C27.610099999999996,23.9482,27.739199999999997,24.0654,27.887299999999996,24.1542C29.092999999999996,24.8777,30.442899999999998,25.3276,31.841599999999996,25.4719C31.841599999999996,25.4719,31.841599999999996,27.5,31.841599999999996,27.5C31.841599999999996,28.5083,32.7388,29.3333,33.8319,29.3333C33.8319,29.3333,35.8222,29.3333,35.8222,29.3333C36.9165,29.3333,37.8136,28.5083,37.8136,27.5C37.8136,27.5,37.8136,25.4833,37.8136,25.4833C41.5869,25.0708,44.4411,21.9312,43.9439,18.2646C43.5829,15.6292,41.3703,13.5323,38.6089,12.799C38.6089,12.799,32.3904,11.1604,32.3904,11.1604C32.1792,11.111,31.990299999999998,10.9933,31.852899999999998,10.8254C31.715499999999995,10.6576,31.637399999999996,10.4491,31.630699999999997,10.2323C31.630699999999997,9.70521,32.0994,9.26979,32.6757,9.26979C32.6757,9.26979,36.7549,9.26979,36.7549,9.26979C37.196,9.27048,37.6329,9.35606,38.0417,9.52187C38.6409,9.77396,39.3342,9.71667,39.7948,9.29271C39.7948,9.29271,41.9719,7.2875,41.9719,7.2875C42.0692,7.20124,42.1531,7.1008,42.2205,6.98958C42.3112,6.8422,42.3717,6.67831,42.3987,6.50739C42.4256,6.33647,42.4184,6.16191,42.3775,5.99379C42.3366,5.82566,42.2628,5.66731,42.1603,5.52788C42.0578,5.38845,41.9288,5.27071,41.7805,5.18146C40.5744,4.4579,39.2242,4.00807,37.8251,3.86375C37.8251,3.86375,37.8251,1.83333,37.8251,1.83333C37.8251,0.825,36.9291,0,35.8348,0C35.8348,0,33.8445,0,33.8445,0C32.7502,0,31.854199999999995,0.825,31.854199999999995,1.83333C31.854199999999995,1.83333,31.854199999999995,3.85,31.854199999999995,3.85C28.085499999999996,4.2625,25.225499999999997,7.40208,25.722799999999996,11.0687C26.082599999999996,13.7042,28.302099999999996,15.801,31.058999999999997,16.5344ZM64.7705,37.5948C63.4184,36.3687,61.3101,36.449,59.8893,37.5948C59.8893,37.5948,49.3018,46.0625,49.3018,46.0625C48.0021,47.1051,46.3846,47.6713,44.7184,47.6667C44.7184,47.6667,31.166699999999995,47.6667,31.166699999999995,47.6667C30.680399999999995,47.6667,30.214099999999995,47.4735,29.870299999999997,47.1297C29.526499999999995,46.7859,29.333299999999998,46.3196,29.333299999999998,45.8333C29.333299999999998,45.3471,29.526499999999995,44.8808,29.870299999999997,44.537C30.214099999999995,44.1931,30.680399999999995,44,31.166699999999995,44C31.166699999999995,44,40.1374,44,40.1374,44C41.9593,44,43.6562,42.751,43.9473,40.9521C43.9832,40.7455,44.0008,40.5361,44,40.3265C43.9982,39.3552,43.6111,38.4243,42.9236,37.7382C42.2362,37.052,41.3046,36.6667,40.3333,36.6667C40.3333,36.6667,21.999999999999996,36.6667,21.999999999999996,36.6667C18.908099999999997,36.6675,15.910399999999996,37.731,13.509399999999996,39.6791C13.509399999999996,39.6791,8.181249999999997,44,8.181249999999997,44C8.181249999999997,44,1.8333299999999968,44,1.8333299999999968,44C1.3470999999999969,44,0.8807879999999969,44.1931,0.5369709999999969,44.537C0.19315399999999688,44.8808,-2.6124934689504385e-15,45.3471,-3.1086244689504383e-15,45.8333C-3.1086244689504383e-15,45.8333,-2.7524274689504384e-15,56.8333,-2.7524274689504384e-15,56.8333C-2.4852804689504383e-15,57.3196,0.19315399999999688,57.7859,0.5369709999999969,58.1297C0.8807879999999969,58.4735,1.3470999999999969,58.6667,1.8333299999999968,58.6667C1.8333299999999968,58.6667,42.7132,58.6667,42.7132,58.6667C44.3788,58.668,45.9953,58.1022,47.2966,57.0625C47.2966,57.0625,64.625,43.1979,64.625,43.1979C65.0418,42.8645,65.3809,42.4441,65.6184,41.9661C65.8559,41.4881,65.9862,40.964,66.0002,40.4304C66.0141,39.8968,65.9114,39.3666,65.6992,38.8769C65.4871,38.3871,65.1705,37.9495,64.7717,37.5948C64.7717,37.5948,64.7705,37.5948,64.7705,37.5948Z" fill="#FFFFFF" fill-opacity="1"/></g></g></svg>