<svg xmlns="http://www.w3.org/2000/svg" xmlns:xlink="http://www.w3.org/1999/xlink" fill="none" version="1.1" width="66" height="52.79999923706055" viewBox="0 0 66 52.79999923706055"><defs><clipPath id="master_svg0_1_2684/0_1433"><rect x="0" y="0" width="66" height="52.79999923706055" rx="0"/></clipPath></defs><g clip-path="url(#master_svg0_1_2684/0_1433)"><g><path d="M53.5425,13.18968990463257C53.5425,13.18968990463257,48.6338,8.280939904632568,48.6338,8.280939904632568C47.5474,7.204128904632569,46.0796,6.599987956632568,44.55,6.599999904809792C44.55,6.599999904809792,21.1612,6.599999904809792,21.1612,6.599999904809792C19.635,6.599999904809792,18.1603,7.208437904632568,17.0775,8.280939904632568C17.0775,8.280939904632568,12.1687,13.18968990463257,12.1687,13.18968990463257C12.1687,13.18968990463257,0,13.18968990463257,0,13.18968990463257C0,13.18968990463257,0,39.558799904632565,0,39.558799904632565C0,39.558799904632565,6.6,39.558799904632565,6.6,39.558799904632565C8.415,39.558799904632565,9.87938,38.09439990463257,9.88969,36.28969990463257C9.88969,36.28969990463257,10.8281,36.28969990463257,10.8281,36.28969990463257C10.8281,36.28969990463257,19.5525,44.168399904632565,19.5525,44.168399904632565C22.7391,46.75689990463257,27.1631,46.81879990463257,30.4425,44.560299904632565C31.7316,45.67409990463257,33.1237,46.19999990463257,34.6809,46.19999990463257C36.5578,46.19999990463257,38.3213,45.43689990463257,39.7134,43.72499990463257C41.9925,44.622199904632566,44.6841,43.993099904632565,46.3134,41.99249990463257C46.3134,41.99249990463257,49.0153,38.66159990463257,49.0153,38.66159990463257C49.5928,37.94999990463257,49.9538,37.13529990463257,50.1394,36.28969990463257C50.1394,36.28969990463257,56.1103,36.28969990463257,56.1103,36.28969990463257C56.1206,38.09439990463257,57.5953,39.558799904632565,59.4,39.558799904632565C59.4,39.558799904632565,66,39.558799904632565,66,39.558799904632565C66,39.558799904632565,66,13.18968990463257,66,13.18968990463257C66,13.18968990463257,53.5425,13.18968990463257,53.5425,13.18968990463257ZM4.95,36.25879990463257C4.0425,36.25879990463257,3.3,35.51629990463257,3.3,34.60879990463257C3.3,33.70129990463256,4.0425,32.95879990463257,4.95,32.95879990463257C5.8575,32.95879990463257,6.6,33.70129990463256,6.6,34.60879990463257C6.6,35.52659990463257,5.8575,36.25879990463257,4.95,36.25879990463257ZM45.1688,35.54719990463256C45.1688,35.54719990463256,42.4772,38.86779990463257,42.4772,38.86779990463257C42.1884,39.21839990463257,41.6728,39.28029990463257,41.3119,38.991599904632565C41.3119,38.991599904632565,38.8472,36.99089990463257,38.8472,36.99089990463257C38.8472,36.99089990463257,35.7534,40.75499990463257,35.7534,40.75499990463257C35.1347,41.50779990463257,34.2066,41.24999990463257,33.8972,41.00249990463257C33.8972,41.00249990463257,30.1022,37.75409990463257,30.1022,37.75409990463257C30.1022,37.75409990463257,28.4934,39.734099904632565,28.4934,39.734099904632565C27.06,41.49749990463257,24.4509,41.765599904632566,22.7906,40.41469990463257C22.7906,40.41469990463257,12.7566,31.339699904632567,12.7566,31.339699904632567C12.7566,31.339699904632567,9.9,31.339699904632567,9.9,31.339699904632567C9.9,31.339699904632567,9.9,18.12939990463257,9.9,18.12939990463257C9.9,18.12939990463257,14.2209,18.12939990463257,14.2209,18.12939990463257C14.2209,18.12939990463257,20.5837,11.776879904632569,20.5837,11.776879904632569C20.79,11.69437990463257,20.9653,11.622189904632569,21.1716,11.539689904632567C21.1716,11.539689904632567,27.0187,11.539689904632567,27.0187,11.539689904632567C27.0187,11.539689904632567,23.0278,15.200629904632569,23.0278,15.200629904632569C19.9959,17.97469990463257,19.8206,22.656599904632568,22.5741,25.64719990463257C24.1003,27.31779990463257,28.8853,29.895899904632568,33.0412,26.10089990463257C33.0412,26.10089990463257,33.8869,25.327499904632568,33.8869,25.327499904632568C33.8869,25.327499904632568,45.045,34.38189990463257,45.045,34.38189990463257C45.3956,34.67059990463257,45.4472,35.19659990463256,45.1688,35.54719990463256C45.1688,35.54719990463256,45.1688,35.54719990463256,45.1688,35.54719990463256ZM56.1,31.339699904632567C56.1,31.339699904632567,48.9637,31.339699904632567,48.9637,31.339699904632567C48.7266,31.05089990463257,48.4584,30.78279990463257,48.1697,30.545599904632567C48.1697,30.545599904632567,37.5788,21.944999904632567,37.5788,21.944999904632567C37.5788,21.944999904632567,38.8678,20.769399904632568,38.8678,20.769399904632568C39.5381,20.150599904632568,39.5897,19.10909990463257,38.9709,18.438799904632567C38.9709,18.438799904632567,37.8469,17.232199904632566,37.8469,17.232199904632566C37.2281,16.56187990463257,36.1866,16.520629904632568,35.5163,17.129099904632568C35.5163,17.129099904632568,29.8238,22.347199904632568,29.8238,22.347199904632568C28.8441,23.24439990463257,27.1734,23.316599904632568,26.2556,22.347199904632568C25.2966,21.32629990463257,25.3791,19.758799904632568,26.3794,18.85129990463257C26.3794,18.85129990463257,33.1444,12.653439904632569,33.1444,12.653439904632569C33.9075,11.952189904632569,34.8975,11.570629904632568,35.9287,11.570629904632568C35.9287,11.570629904632568,44.5603,11.549999904632568,44.5603,11.549999904632568C44.7769,11.549999904632568,44.9831,11.632499904632567,45.1275,11.78718990463257C45.1275,11.78718990463257,51.4903,18.139699904632568,51.4903,18.139699904632568C51.4903,18.139699904632568,56.1,18.139699904632568,56.1,18.139699904632568C56.1,18.139699904632568,56.1,31.339699904632567,56.1,31.339699904632567C56.1,31.339699904632567,56.1,31.339699904632567,56.1,31.339699904632567ZM61.05,36.25879990463257C60.1425,36.25879990463257,59.4,35.51629990463257,59.4,34.60879990463257C59.4,33.70129990463256,60.1425,32.95879990463257,61.05,32.95879990463257C61.9575,32.95879990463257,62.7,33.70129990463256,62.7,34.60879990463257C62.7,35.52659990463257,61.9575,36.25879990463257,61.05,36.25879990463257Z" fill="#FFFFFF" fill-opacity="1"/></g></g></svg>