<svg xmlns="http://www.w3.org/2000/svg" xmlns:xlink="http://www.w3.org/1999/xlink" fill="none" version="1.1" width="66" height="58.666664123535156" viewBox="0 0 66 58.666664123535156"><defs><clipPath id="master_svg0_1_2684/0_1417"><rect x="0" y="0" width="66" height="58.666664123535156" rx="0"/></clipPath></defs><g clip-path="url(#master_svg0_1_2684/0_1417)"><g><path d="M32.125446875,16.98812431640625C32.125446875,16.98812431640625,10.999746875,34.387624316406246,10.999746875,34.387624316406246C10.999746875,34.387624316406246,10.999746875,53.16672431640625,10.999746875,53.16672431640625C10.999746875,53.65292431640625,11.192946875,54.11922431640625,11.536746875,54.46302431640625C11.880546875,54.80692431640625,12.346846875,55.00002431640625,12.833046875,55.00002431640625C12.833046875,55.00002431640625,25.673246875,54.96682431640625,25.673246875,54.96682431640625C26.157946875,54.96442431640625,26.621846875,54.77012431640625,26.963746875,54.42662431640625C27.305546875,54.08302431640625,27.497446875,53.61812431640625,27.497446875,53.13352431640625C27.497446875,53.13352431640625,27.497446875,42.16672431640625,27.497446875,42.16672431640625C27.497446875,41.68052431640625,27.690646875,41.21412431640625,28.034446875,40.87032431640625C28.378246875,40.52652431640625,28.844546875,40.33332431640625,29.330746875,40.33332431640625C29.330746875,40.33332431640625,36.664146875,40.33332431640625,36.664146875,40.33332431640625C37.150346875,40.33332431640625,37.616646875,40.52652431640625,37.960446875,40.87032431640625C38.304246875,41.21412431640625,38.497446875,41.68052431640625,38.497446875,42.16672431640625C38.497446875,42.16672431640625,38.497446875,53.12542431640625,38.497446875,53.12542431640625C38.496646875,53.36672431640625,38.543546875,53.60572431640625,38.635346875,53.82882431640625C38.727146875,54.05192431640625,38.862046875,54.25472431640625,39.032346875,54.42552431640625C39.202746875,54.59642431640625,39.405046875,54.73192431640625,39.627846875,54.82442431640625C39.850646875,54.91692431640625,40.089546875,54.96452431640625,40.330746875,54.96452431640625C40.330746875,54.96452431640625,53.166446875,55.00002431640625,53.166446875,55.00002431640625C53.652646875,55.00002431640625,54.118946875,54.80692431640625,54.462746875,54.46302431640625C54.806546875,54.11922431640625,54.999746875,53.65292431640625,54.999746875,53.16672431640625C54.999746875,53.16672431640625,54.999746875,34.375024316406254,54.999746875,34.375024316406254C54.999746875,34.375024316406254,33.878646875,16.98812431640625,33.878646875,16.98812431640625C33.630246875,16.78802431640625,33.320946875,16.67882431640625,33.002046875,16.67882431640625C32.683146875,16.67882431640625,32.373746875,16.78802431640625,32.125446875,16.98812431640625C32.125446875,16.98812431640625,32.125446875,16.98812431640625,32.125446875,16.98812431640625ZM65.495546875,28.81432431640625C65.495546875,28.81432431640625,55.916446875,20.91832431640625,55.916446875,20.91832431640625C55.916446875,20.91832431640625,55.916446875,5.04742431640625,55.916446875,5.04742431640625C55.916446875,4.68275431640625,55.771546875,4.33301531640625,55.513646875,4.07515331640625C55.255846875,3.81729031640625,54.906046875,3.67242431640625,54.541446875,3.67242431640625C54.541446875,3.67242431640625,48.124746875,3.67242431640625,48.124746875,3.67242431640625C47.760046875,3.67242431640625,47.410346875,3.81729031640625,47.152446875,4.07515331640625C46.894646875,4.33301531640625,46.749746875,4.68275431640625,46.749746875,5.04742431640625C46.749746875,5.04742431640625,46.749746875,13.36732431640625,46.749746875,13.36732431640625C46.749746875,13.36732431640625,36.491046875,4.92711431640625,36.491046875,4.92711431640625C35.506646875,4.11698431640625,34.271246875,3.67404377640625,32.996346875,3.67404377640625C31.721346875,3.67404377640625,30.486046875,4.11698431640625,29.501546875,4.92711431640625C29.501546875,4.92711431640625,0.497055875,28.81432431640625,0.497055875,28.81432431640625C0.357822875,28.92942431640625,0.242628875,29.07072431640625,0.158057875,29.23042431640625C0.073486075,29.39002431640625,0.021193575,29.56472431640625,0.004168095,29.74452431640625C-0.012857425,29.92442431640625,0.005717835,30.10582431640625,0.058832375,30.27842431640625C0.111946875,30.45112431640625,0.198559875,30.61162431640625,0.313721875,30.75072431640625C0.313721875,30.75072431640625,3.235596875,34.30282431640625,3.235596875,34.30282431640625C3.350446875,34.44252431640625,3.491706875,34.55812431640625,3.651296875,34.64312431640625C3.810896875,34.72812431640625,3.985676875,34.78082431640625,4.165656875,34.798124316406245C4.345636875,34.81542431640625,4.527266875,34.797124316406254,4.700156875,34.744224316406246C4.873036875,34.69132431640625,5.033786875,34.60472431640625,5.173196875,34.48962431640625C5.173196875,34.48962431640625,32.125446875,12.29024431640625,32.125446875,12.29024431640625C32.373746875,12.09009431640625,32.683146875,11.98094431640625,33.002046875,11.98094431640625C33.320946875,11.98094431640625,33.630246875,12.09009431640625,33.878646875,12.29024431640625C33.878646875,12.29024431640625,60.832046875,34.48962431640625,60.832046875,34.48962431640625C60.971146875,34.60482431640625,61.131646875,34.69142431640625,61.304346875,34.74452431640625C61.476946875,34.79762431640625,61.658446875,34.81622431640625,61.838246875,34.79922431640625C62.018046875,34.782124316406254,62.192746875,34.72982431640625,62.352446875,34.645324316406246C62.512046875,34.56072431640625,62.653346875,34.44552431640625,62.768446875,34.30632431640625C62.768446875,34.30632431640625,65.690346875,30.75422431640625,65.690346875,30.75422431640625C65.805346875,30.61422431640625,65.891646875,30.45292431640625,65.944146875,30.27952431640625C65.996646875,30.10612431640625,66.014346875,29.92402431640625,65.996246875,29.74372431640625C65.978146875,29.56352431640625,65.924546875,29.38862431640625,65.838646875,29.22902431640625C65.752746875,29.06952431640625,65.636146875,28.92862431640625,65.495546875,28.81432431640625C65.495546875,28.81432431640625,65.495546875,28.81432431640625,65.495546875,28.81432431640625Z" fill="#FFFFFF" fill-opacity="1"/></g></g></svg>